<?xml version="1.0" standalone="no"?>
<!DOCTYPE svg PUBLIC "-//W3C//DTD SVG 20010904//EN"
 "http://www.w3.org/TR/2001/REC-SVG-20010904/DTD/svg10.dtd">
<svg version="1.0" xmlns="http://www.w3.org/2000/svg"
 width="400.000000pt" height="400.000000pt" viewBox="0 0 400.000000 400.000000"
 preserveAspectRatio="xMidYMid meet">
<metadata>
Created by potrace 1.14, written by Peter Selinger 2001-2017
</metadata>
<g transform="translate(0.000000,400.000000) scale(0.100000,-0.100000)"
fill="#000000" stroke="none">
<path d="M1880 3360 c-36 -4 -119 -20 -185 -34 -293 -64 -436 -195 -501 -458
-32 -126 -56 -182 -96 -218 l-32 -30 29 -30 c40 -42 60 -38 96 18 19 29 28 37
24 22 -18 -63 -35 -91 -62 -101 -75 -28 -122 -58 -183 -118 -57 -56 -72 -79
-101 -151 -32 -80 -34 -91 -33 -200 1 -102 4 -124 32 -197 32 -87 56 -127 105
-180 l29 -31 -33 -17 c-19 -10 -40 -22 -47 -28 -7 -5 -52 -9 -100 -8 -74 2
-92 -1 -112 -17 l-23 -19 44 -31 c24 -16 64 -51 89 -76 l44 -46 -31 0 c-22 0
-41 -10 -62 -31 -17 -17 -31 -34 -31 -39 0 -5 -16 -10 -37 -12 -32 -3 -38 -7
-51 -43 -8 -23 -15 -78 -16 -130 -1 -75 3 -98 22 -137 19 -38 30 -49 56 -53
18 -4 45 -20 60 -36 l27 -29 187 -2 186 -3 -69 -45 c-38 -25 -76 -52 -84 -61
-9 -9 -49 -24 -90 -34 -56 -14 -84 -27 -113 -53 -42 -38 -78 -99 -78 -132 0
-23 0 -23 34 -10 14 5 58 14 98 19 40 5 80 12 88 15 8 3 21 2 28 -2 10 -7 7
-19 -14 -56 -18 -32 -24 -54 -20 -72 4 -14 3 -30 -1 -37 -4 -7 -8 -46 -8 -87
-1 -59 -8 -93 -32 -159 -30 -80 -35 -86 -94 -127 -34 -24 -64 -46 -67 -48 -2
-3 19 -4 47 -4 56 2 62 5 30 17 -20 7 -18 10 22 39 29 21 46 29 53 22 5 -5 18
-10 27 -10 18 0 29 -19 29 -51 0 -10 7 -19 15 -19 10 0 14 10 13 34 -1 40 13
61 95 144 l62 64 85 -4 c84 -5 85 -4 185 43 55 26 136 60 180 75 188 64 486
33 704 -74 105 -51 106 -52 123 -82 15 -27 76 -50 132 -50 27 0 60 -35 102
-107 l27 -44 73 2 c41 2 74 3 74 4 0 0 -13 51 -29 114 l-29 115 25 19 c19 15
23 25 18 47 -3 16 -2 31 4 35 18 10 13 24 -18 53 -16 15 -31 42 -35 62 -3 19
-17 56 -31 82 -17 33 -21 47 -12 51 12 4 295 0 347 -5 19 -2 26 2 28 18 4 27
-70 94 -144 130 -46 22 -66 26 -151 26 -90 0 -100 2 -123 24 -14 13 -68 41
-120 62 -139 56 -133 67 36 75 76 4 209 7 296 7 88 0 168 4 178 10 20 11 40
59 40 97 0 13 7 26 15 29 22 9 37 76 35 162 -1 43 3 113 10 156 6 43 9 91 6
105 -5 18 -4 22 3 11 18 -30 52 -234 46 -277 -6 -39 -4 -43 15 -43 12 0 60 18
105 39 80 37 84 41 95 82 22 79 -8 232 -76 392 -18 44 -32 82 -30 84 1 2 32
-20 67 -49 73 -58 140 -92 216 -109 46 -11 55 -10 71 5 32 28 74 114 70 143
-3 26 -6 28 -45 25 -73 -6 -225 51 -293 108 l-25 22 25 -6 c92 -21 166 -28
259 -24 115 6 172 23 191 58 14 27 19 136 5 132 -5 -1 -48 -16 -95 -32 -71
-25 -101 -30 -181 -30 -151 0 -242 35 -348 134 -99 93 -154 199 -205 396 -32
127 -67 216 -115 299 -169 289 -471 482 -814 520 -106 12 -140 12 -237 1z
m110 -205 c140 -25 213 -55 180 -75 -9 -6 -10 -9 0 -15 7 -4 17 -1 22 6 10 14
2 -87 -8 -103 -9 -15 -23 -8 -17 8 5 14 3 15 -15 5 -11 -6 -34 -8 -51 -5 l-30
6 24 36 c39 57 32 80 -9 34 -19 -20 -38 -33 -43 -29 -4 5 11 26 35 48 23 22
42 42 42 44 0 16 -31 -2 -86 -50 l-62 -55 -59 4 c-32 2 -62 5 -67 5 -5 1 3 10
18 22 31 24 34 64 7 79 -26 14 -73 -22 -53 -41 10 -11 12 -10 12 4 0 10 8 17
20 17 26 0 26 -22 -1 -46 -40 -36 -80 26 -42 68 15 18 12 17 -22 -4 -52 -33
-59 -66 -16 -74 55 -11 44 -24 -21 -24 -35 0 -80 -4 -100 -9 -35 -8 -38 -7
-39 13 -2 20 -2 20 -6 -1 -2 -13 -8 -23 -13 -23 -5 0 -7 7 -4 15 5 11 2 13
-10 9 -9 -3 -13 -11 -9 -18 4 -8 3 -8 -6 0 -16 14 1 91 25 113 16 15 16 15 10
-2 -4 -13 -2 -17 6 -14 7 2 13 11 13 20 0 8 4 19 8 23 25 25 244 31 367 9z
m-219 -88 c-16 -16 -26 0 -10 19 9 11 15 12 17 4 2 -6 -1 -17 -7 -23z m159
-138 c36 -6 97 -19 135 -31 60 -18 67 -22 51 -32 -72 -43 -110 -73 -159 -125
-65 -67 -75 -111 -36 -147 19 -17 39 -19 188 -20 155 -2 156 11 1 16 l-55 2
120 58 c66 33 146 68 177 79 l57 19 73 -43 c98 -57 103 -64 89 -119 -13 -55
-13 -56 -1 -56 6 0 18 16 27 35 9 19 19 35 23 35 3 0 24 -18 45 -40 l40 -41 2
-147 c1 -81 2 -149 3 -151 0 -2 13 15 30 37 53 73 143 92 236 48 81 -38 124
-117 124 -230 0 -113 -41 -197 -119 -249 -51 -34 -124 -37 -185 -6 l-41 20
-75 -31 c-227 -94 -337 -127 -604 -181 -181 -37 -414 -78 -442 -79 -6 0 -18
18 -27 40 -16 42 -43 53 -54 24 -6 -15 -7 -15 -19 1 -20 27 -43 11 -50 -35 -9
-53 -34 -64 -128 -56 -134 12 -228 46 -313 114 -161 128 -236 386 -169 581 64
184 155 264 363 319 59 16 62 18 55 42 -4 14 -7 67 -7 118 1 138 3 138 153 44
68 -43 137 -89 155 -104 l32 -27 -35 6 c-19 2 -51 0 -70 -5 l-35 -10 50 -1
c28 -1 73 -4 102 -7 50 -6 54 -5 88 29 59 59 53 80 -66 202 l-101 104 44 5
c111 15 208 13 328 -5z m808 -1265 c36 -25 25 -34 -18 -16 -22 9 -40 20 -40
25 0 12 35 8 58 -9z m-72 -60 c18 -15 18 -15 -11 -9 -37 8 -57 25 -29 25 11 0
29 -7 40 -16z m-1722 -28 c-16 -14 -33 -25 -39 -25 -5 0 5 13 23 30 19 17 36
28 39 25 3 -3 -8 -16 -23 -30z m672 -53 c19 -57 26 -68 44 -65 17 3 20 -2 20
-30 0 -18 -4 -39 -9 -46 -9 -14 -90 -36 -99 -27 -19 19 -28 189 -12 231 14 37
27 22 56 -63z m-82 -39 c7 -60 11 -114 9 -121 -7 -18 -31 -23 -59 -13 -22 9
-25 15 -21 38 3 15 12 64 21 109 14 80 23 109 32 100 3 -3 11 -53 18 -113z
m-492 69 c-7 -3 -26 -16 -43 -30 -32 -27 -51 -25 -28 3 16 19 71 45 79 37 3
-3 -1 -8 -8 -10z m-32 -123 c0 -14 -24 -23 -47 -17 -15 3 -14 6 7 15 32 14 40
14 40 2z m1915 -37 c-60 -5 -81 -22 -100 -82 -7 -25 -14 -38 -14 -28 -1 24 23
79 43 100 13 12 32 16 69 15 l52 -2 -50 -3z m-2030 -10 c-60 -7 -77 -14 -102
-41 -21 -22 -24 -23 -14 -5 19 36 52 53 101 52 31 -2 36 -3 15 -6z m2048 -50
c-7 -2 -19 -2 -25 0 -7 3 -2 5 12 5 14 0 19 -2 13 -5z m134 -38 c-7 -13 -14
-20 -15 -14 -2 5 2 16 8 24 18 21 20 18 7 -10z m-2367 1 c0 -2 -7 -7 -16 -10
-8 -3 -12 -2 -9 4 6 10 25 14 25 6z m2036 -72 l-7 -34 -83 0 c-46 0 -112 -3
-147 -6 -35 -4 -61 -4 -58 0 4 4 67 13 140 19 l133 12 9 35 c12 43 22 22 13
-26z m61 -1 c-3 -10 -5 -4 -5 12 0 17 2 24 5 18 2 -7 2 -21 0 -30z m86 20 c-7
-2 -21 -2 -30 0 -10 3 -4 5 12 5 17 0 24 -2 18 -5z m-1920 -84 c7 -1 17 -2 22
-4 6 -1 44 -3 85 -5 l75 -4 -95 -6 c-52 -3 -100 -4 -107 -2 -17 5 -22 24 -15
58 l6 29 8 -32 c5 -18 14 -34 21 -34z m-156 35 c-3 -3 -12 -4 -19 -1 -8 3 -5
6 6 6 11 1 17 -2 13 -5z m2056 -41 c-7 -2 -19 -2 -25 0 -7 3 -2 5 12 5 14 0
19 -2 13 -5z m-531 -151 c5 -20 5 -45 0 -60 -9 -26 -9 -25 -17 18 -4 25 -12
53 -17 63 -8 15 -6 18 8 15 10 -2 21 -17 26 -36z m585 12 c-3 -3 -12 -4 -19
-1 -8 3 -5 6 6 6 11 1 17 -2 13 -5z m-1582 -36 c-11 -57 -16 -68 -26 -63 -9 6
-3 47 13 78 14 27 20 20 13 -15z m-305 -235 c0 -5 -18 -9 -40 -9 -22 -1 -37 2
-34 7 6 11 74 12 74 2z m1676 -19 c17 -14 17 -15 1 -10 -10 3 -25 6 -33 6 -8
0 -14 5 -14 10 0 15 24 12 46 -6z m-1721 -44 c-28 -12 -47 -12 -40 0 3 6 18
10 33 9 24 0 25 -1 7 -9z m1760 -21 c7 -7 1 -8 -20 -3 -46 11 -67 26 -25 19
19 -3 39 -10 45 -16z m-1758 -399 c14 -11 41 -22 60 -26 25 -5 31 -9 21 -15
-20 -13 -50 -11 -82 6 -24 13 -27 13 -17 1 10 -12 8 -15 -11 -19 -13 -2 5 -5
40 -6 38 0 61 -5 57 -11 -10 -16 -75 -23 -101 -11 -15 6 -23 7 -19 1 3 -5 20
-14 38 -19 l32 -9 -35 -2 c-29 -1 -32 -3 -15 -10 20 -8 19 -9 -1 -9 -12 -1
-28 7 -35 16 -12 15 -12 16 1 8 11 -6 12 -5 4 4 -9 9 -6 26 10 67 11 30 23 54
24 54 2 0 15 -9 29 -20z m1766 -66 c4 -22 -1 -28 -27 -40 -23 -10 -26 -13 -11
-14 20 -1 20 -1 1 -15 -22 -16 -96 -21 -96 -6 0 5 -7 16 -15 25 -14 13 -10 15
30 22 25 3 60 17 78 29 17 13 33 24 33 24 1 1 4 -11 7 -25z m-8 -84 c-29 -31
-86 -42 -100 -20 -4 6 6 10 22 10 15 0 42 9 58 20 44 29 53 24 20 -10z m35
-29 c0 -17 -54 -61 -74 -61 -18 0 -16 3 11 19 17 11 34 29 38 40 6 20 25 21
25 2z m-40 -11 c-17 -32 -80 -39 -80 -9 0 5 12 9 28 9 15 0 34 5 42 10 21 14
22 13 10 -10z"/>
<path d="M1854 3141 c24 -5 35 -15 53 -49 3 -6 63 32 63 40 0 4 -12 3 -26 -2
-19 -8 -31 -6 -47 5 -12 8 -33 14 -47 14 -24 -1 -24 -2 4 -8z"/>
<path d="M1616 3073 c-6 -14 -5 -15 5 -6 7 7 10 15 7 18 -3 3 -9 -2 -12 -12z"/>
<path d="M1577 3066 c-3 -8 -2 -18 3 -21 13 -8 24 15 12 27 -6 6 -11 4 -15 -6z"/>
<path d="M2156 3025 c-3 -9 0 -15 9 -15 16 0 20 16 6 24 -5 3 -11 -1 -15 -9z"/>
<path d="M1815 2735 c-17 -57 -14 -118 6 -131 6 -4 8 11 4 43 -4 26 -2 68 4
93 15 65 5 62 -14 -5z"/>
<path d="M1341 2549 c8 -5 24 -9 35 -9 16 0 23 -8 27 -29 9 -44 53 -89 100
-102 59 -16 106 1 151 54 20 23 43 50 52 60 9 10 14 20 12 22 -1 2 -90 5 -197
8 -115 3 -188 1 -180 -4z m243 -18 c19 -1 19 -2 1 -21 -26 -28 -82 -24 -103 8
-15 22 -15 22 34 18 27 -2 58 -4 68 -5z"/>
<path d="M1950 2531 c-23 -8 -22 -9 12 -10 32 -1 38 -5 48 -33 30 -90 116
-132 189 -93 29 14 75 63 83 87 5 15 147 19 190 5 16 -5 34 -5 44 1 12 7 5 11
-34 16 -27 3 -57 4 -66 0 -9 -3 -22 -2 -29 4 -6 5 -83 12 -169 16 -86 3 -176
8 -200 11 -24 2 -54 0 -68 -4z m250 -30 c0 -16 -26 -31 -55 -31 -17 0 -36 5
-43 12 -25 25 -12 33 43 30 30 -2 55 -7 55 -11z"/>
<path d="M1475 1742 c-50 -17 -145 -68 -145 -78 0 -3 19 6 43 19 51 30 99 46
149 49 21 2 39 8 40 13 5 17 -34 16 -87 -3z"/>
<path d="M2653 133 c9 -2 25 -2 35 0 9 3 1 5 -18 5 -19 0 -27 -2 -17 -5z"/>
</g>
</svg>
